<?xml version="1.0" encoding="utf-8"?>
<!-- Generator: Adobe Illustrator 24.1.2, SVG Export Plug-In . SVG Version: 6.00 Build 0)  -->
<svg version="1.1" id="Layer_1" xmlns="http://www.w3.org/2000/svg" xmlns:xlink="http://www.w3.org/1999/xlink" x="0px" y="0px"
	 viewBox="0 0 64 64" style="enable-background:new 0 0 64 64;" xml:space="preserve">
<style type="text/css">
	.st0{fill:#52AE32;}
	.st1{fill:#FFFFFF;}
</style>
<circle class="st0" cx="32" cy="32" r="30"/>
<g>
	<path class="st1" d="M28.4,31.9c0,2.2,1.8,4,4,4c1.5,0,2.9-0.9,3.5-2.2l0,0l7.2-13.1l-12.7,7.8l0,0C29.2,29.1,28.4,30.4,28.4,31.9z
		"/>
	<path class="st1" d="M48.3,13C44.3,9.4,39,7.2,33,6.8v6c5,0.3,7.9,1.9,10.9,4.4L48.3,13z"/>
	<path class="st1" d="M51.1,30h6c-0.4-6-2.8-10.9-6.4-15l-4.3,4.2C49.1,22.2,50.8,26,51.1,30z"/>
	<path class="st1" d="M51.2,33c-0.6,10-8.9,17.9-19,17.9c-10.5,0-19.4-8.5-19.4-19.1c0-10,8.3-18.2,17.3-19v-6
		C17,7.6,6.7,18.5,6.7,31.9C6.7,45.7,18.1,57,32,57c13.4-0.1,24.6-11,25.2-24H51.2z"/>
</g>
</svg>
