<?xml version="1.0" encoding="utf-8"?>
<!-- Generator: Adobe Illustrator 24.1.2, SVG Export Plug-In . SVG Version: 6.00 Build 0)  -->
<svg version="1.1" id="Слой_1" xmlns="http://www.w3.org/2000/svg" xmlns:xlink="http://www.w3.org/1999/xlink" x="0px" y="0px"
	 viewBox="0 0 25.9 23.1" style="enable-background:new 0 0 25.9 23.1;" xml:space="preserve">
<g>
	<path d="M4.4,13.9c1.7,0,3.1-1.4,3.1-3.1c0-1.7-1.4-3.1-3.1-3.1c-1.7,0-3.1,1.4-3.1,3.1C1.3,12.5,2.7,13.9,4.4,13.9z"/>
	<path d="M4.4,14.8c-2.4,0-4.4,2-4.4,4.4v3.8h8.9v-3.8C8.9,16.8,6.9,14.8,4.4,14.8z"/>
	<path d="M21.5,13.9c1.7,0,3.1-1.4,3.1-3.1c0-1.7-1.4-3.1-3.1-3.1c-1.7,0-3.1,1.4-3.1,3.1C18.4,12.5,19.8,13.9,21.5,13.9z"/>
	<path d="M21.5,14.8c-2.4,0-4.4,2-4.4,4.4v3.8h8.9v-3.8C25.9,16.8,24,14.8,21.5,14.8z"/>
	<path d="M13,6.3c1.7,0,3.1-1.4,3.1-3.1C16.1,1.4,14.7,0,13,0c-1.7,0-3.1,1.4-3.1,3.1C9.8,4.9,11.2,6.3,13,6.3z"/>
	<path d="M17.4,11.6c0-2.4-2-4.4-4.4-4.4c-2.4,0-4.4,2-4.4,4.4v3.8h8.9V11.6z"/>
</g>
</svg>
