<?xml version="1.0" encoding="utf-8"?>
<!-- Generator: Adobe Illustrator 24.1.2, SVG Export Plug-In . SVG Version: 6.00 Build 0)  -->
<svg version="1.1" id="Capa_1" xmlns="http://www.w3.org/2000/svg" xmlns:xlink="http://www.w3.org/1999/xlink" x="0px" y="0px"
	 viewBox="0 0 512 512" style="enable-background:new 0 0 512 512;" xml:space="preserve">
<g>
	<g>
		<path d="M256,0C114.6,0,0,114.6,0,256s114.6,256,256,256s256-114.6,256-256S397.4,0,256,0z M256,472c-119.3,0-216-96.7-216-216
			S136.7,40,256,40s216,96.7,216,216S375.3,472,256,472z"/>
		<path d="M240.8,321.9h47.3v-37c0-10,4.7-19.3,17.2-27.6c12.4-8.2,47.2-24.7,47.2-68.3c0-43.6-36.5-73.7-67.2-80
			c-30.8-6.4-64.1-2.2-87.6,23.7c-21.2,23.1-25.6,41.5-25.6,81.9h47.3v-9.5c0-21.4,2.5-44.2,33.3-50.4c16.8-3.4,32.6,1.9,41.9,11
			c10.7,10.5,10.7,34-6.3,45.8l-26.7,18.1c-15.6,10.1-20.8,21.2-20.8,37.5L240.8,321.9L240.8,321.9z"/>
		<path d="M262.5,333.8c16.4,0,29.9,13.4,29.9,30s-13.4,29.9-29.9,29.9c-16.6,0-30.2-13.4-30.2-29.9
			C232.4,347.2,245.9,333.8,262.5,333.8z"/>
	</g>
</g>
</svg>
