<?xml version="1.0" encoding="utf-8"?>
<!-- Generator: Adobe Illustrator 24.1.2, SVG Export Plug-In . SVG Version: 6.00 Build 0)  -->
<svg version="1.1" id="Слой_1" xmlns="http://www.w3.org/2000/svg" xmlns:xlink="http://www.w3.org/1999/xlink" x="0px" y="0px"
	 viewBox="0 0 100 100" style="enable-background:new 0 0 100 100;" xml:space="preserve">
<style type="text/css">
	.st0{fill:#666666;}
</style>
<g id="Слой_2_1_">
</g>
<g id="svg2" inkscape:version="0.91 r13725" sodipodi:docname="noun_176431_cc.svg" xmlns:cc="http://creativecommons.org/ns#" xmlns:dc="http://purl.org/dc/elements/1.1/" xmlns:inkscape="http://www.inkscape.org/namespaces/inkscape" xmlns:rdf="http://www.w3.org/1999/02/22-rdf-syntax-ns#" xmlns:sodipodi="http://sodipodi.sourceforge.net/DTD/sodipodi-0.dtd" xmlns:svg="http://www.w3.org/2000/svg">
	
		<sodipodi:namedview  bordercolor="#666666" borderopacity="1" gridtolerance="10" guidetolerance="10" id="namedview18" inkscape:current-layer="svg2" inkscape:cx="50" inkscape:cy="62.5" inkscape:pageopacity="0" inkscape:pageshadow="2" inkscape:window-height="480" inkscape:window-maximized="0" inkscape:window-width="640" inkscape:window-x="2211" inkscape:window-y="245" inkscape:zoom="1.888" objecttolerance="10" pagecolor="#ffffff" showgrid="false">
		</sodipodi:namedview>
	<g id="g8">
		<path id="path10" inkscape:connector-curvature="0" class="st0" d="M46.4,34c3.7,0,7.3,0,11,0c2.7,0,4.3,1.2,4.3,3.9
			c0,2.1-0.3,4.4-0.7,6.5c-1.5,8-2.9,16.1-4.4,24.1c-0.5,2.7-1.1,5.3-1.3,8c-0.1,1.3,0,2.7,0.4,3.9c0.4,1.7,1.7,2.7,3.5,2.4
			c1.5-0.1,2.8-0.7,4.3-1.2c1.1-0.4,2.1-1.2,3.2-1.6c1.6-0.7,3.1,0.5,2.5,2.1c-0.3,0.9-0.8,2-1.6,2.7c-4.1,4.1-9,6.7-14.9,6.7
			c-2.8,0-5.5,0-8.2-0.4c-4.5-0.7-10.2-6.3-9.4-12.1c0.5-4.1,1.2-8.1,1.9-12.1c1.2-7.1,2.4-14.1,3.7-21.2c0.1-0.4,0.1-0.9,0.1-1.3
			c0-2.9-0.9-4-3.9-4.4c-1.2-0.1-2.5-0.3-3.7-0.7c-1.5-0.5-2.1-1.6-2-2.8c0.1-1.2,0.9-2,2.5-2.3c0.8-0.1,1.7-0.1,2.5-0.1
			C39.4,34,42.9,34,46.4,34L46.4,34z"/>
		<path id="path12" inkscape:connector-curvature="0" class="st0" d="M52.9,6.4c6.3,0,11.2,5.1,11.2,11.4c0,6.3-5.1,11.3-11.2,11.3
			c-6.3,0-11.3-5.2-11.3-11.4S46.6,6.4,52.9,6.4z"/>
	</g>
</g>
</svg>
