<?xml version="1.0" encoding="utf-8"?>
<!-- Generator: Adobe Illustrator 24.1.2, SVG Export Plug-In . SVG Version: 6.00 Build 0)  -->
<svg version="1.1" id="Слой_1" xmlns="http://www.w3.org/2000/svg" xmlns:xlink="http://www.w3.org/1999/xlink" x="0px" y="0px"
	 viewBox="0 0 764.3 210.7" style="enable-background:new 0 0 764.3 210.7;" xml:space="preserve">
<style type="text/css">
	.st0{fill-rule:evenodd;clip-rule:evenodd;fill:#007934;}
	.st1{fill:#007934;}
</style>
<path class="st0" d="M240.3,164.3h36c37.1,0,63-28.3,63-64.9c0-37.1-25.2-65.2-62.8-65.2h-36.2 M265.7,56.3h4.1
	c28.8,0,43.3,14.7,43.3,43c0,25.7-12.1,43-43.3,43h-4.1V56.3z"/>
<polyline class="st1" points="422.6,56.3 422.6,34.2 355.3,34.2 355.3,164.3 422.6,164.3 422.6,142.2 380.6,142.2 380.6,107 
	421,107 421,85 380.6,85 380.6,56.3 "/>
<path class="st0" d="M644.6,164.3L693.3,39c2.1-5.3,7-8.2,11.9-8.2c5,0,9.9,2.9,11.9,8.2l47.2,125.3h-27.1l-10-27.4H682l-10.7,27.4
	 M689.3,116.2l15.8-47.1h0.3l14.7,47.1H689.3z"/>
<polyline class="st1" points="470.3,89.1 469.9,89.1 469.9,34.2 444.6,34.2 444.6,164.3 469.9,164.3 469.9,105.8 470.3,105.8 
	511.9,164.3 544.5,164.3 492.4,94.3 541.7,34.2 510.5,34.2 "/>
<path class="st1" d="M595.5,54.9H582v39.1h13.5c10.1,0,18.2-8.8,18.2-19.6C613.7,63.7,605.6,54.9,595.5,54.9 M608.9,111.1l35.7,53.2
	h-30.7L582,111.8v52.4h-25.4V34.2h43.7c21.5,0,38.9,17.4,38.9,38.9C639.2,91.6,626.2,107.1,608.9,111.1"/>
<path class="st1" d="M40.7,1.1l109.8,63.6c8.5,4.9,17,15.5,17,29.4c0,14.1-8.5,24.5-17,29.4L0,210.7v-39.2l133.7-77.4L61.8,52.5
	v58.7L28,130.8V8.5c0-3,1.5-5.8,4.2-7.3C34.6-0.2,37.9-0.5,40.7,1.1"/>
</svg>
