<?xml version="1.0" encoding="utf-8"?>
<!-- Generator: Adobe Illustrator 24.1.2, SVG Export Plug-In . SVG Version: 6.00 Build 0)  -->
<svg version="1.1" id="Слой_1" xmlns="http://www.w3.org/2000/svg" xmlns:xlink="http://www.w3.org/1999/xlink" x="0px" y="0px"
	 viewBox="0 0 32 32" style="enable-background:new 0 0 32 32;" xml:space="preserve">
<style type="text/css">
	.st0{fill:#666666;}
</style>
<g id="mail">
	<path class="st0" d="M29,6H3H2.9C2.9,6,2.8,6,2.7,6L2.5,6.1c-0.1,0-0.1,0.1-0.2,0.1c-0.1,0-0.1,0.1-0.2,0.1L2.2,6.4
		c0,0,0,0.1,0,0.1c0,0.1-0.1,0.1-0.1,0.2C2.1,6.7,2,6.8,2,6.9V7v18c0,0.6,0.4,1,1,1h26c0.6,0,1-0.4,1-1V7C30,6.4,29.6,6,29,6z
		 M16,14.8L6.2,8h20.9L16,14.8z M4,24V8.9l11.4,7.9l0,0c0.1,0,0.1,0.1,0.2,0.1h0.1c0.1,0,0.2,0.1,0.3,0.1l0,0c0.1,0,0.3,0,0.4-0.1
		h0.1l0,0L28,9.8V24H4z"/>
</g>
</svg>
