<?xml version="1.0" encoding="utf-8"?>
<!-- Generator: Adobe Illustrator 24.1.2, SVG Export Plug-In . SVG Version: 6.00 Build 0)  -->
<svg version="1.1" id="Слой_1" xmlns="http://www.w3.org/2000/svg" xmlns:xlink="http://www.w3.org/1999/xlink" x="0px" y="0px"
	 viewBox="0 0 24 24" style="enable-background:new 0 0 24 24;" xml:space="preserve">
<style type="text/css">
	.st0{fill:#FFFFFF;}
</style>
<path class="st0" d="M12,2c5.5,0,10,4.5,10,10s-4.5,10-10,10S2,17.5,2,12S6.5,2,12,2z M12,0C5.4,0,0,5.4,0,12s5.4,12,12,12
	s12-5.4,12-12S18.6,0,12,0z M10,16c0.6-1.8,1.6-3.9,1.8-4.5c0.3-0.8-0.2-1.1-1.7,0.2l-0.3-0.6c1.7-1.9,5.3-2.3,4.1,0.6
	c-0.8,1.8-1.3,3.1-1.6,4c-0.5,1.4,0.7,0.8,1.8-0.2c0.2,0.3,0.2,0.3,0.4,0.6C11.9,18.5,9.1,18.7,10,16z M14.7,7.8
	c-0.5,0.5-1.3,0.4-1.8,0c-0.4-0.5-0.4-1.2,0.2-1.7c0.5-0.5,1.3-0.4,1.8,0C15.3,6.6,15.2,7.4,14.7,7.8z"/>
</svg>
