<?xml version="1.0" encoding="utf-8"?>
<!-- Generator: Adobe Illustrator 24.1.2, SVG Export Plug-In . SVG Version: 6.00 Build 0)  -->
<svg version="1.1" id="Слой_1" xmlns="http://www.w3.org/2000/svg" xmlns:xlink="http://www.w3.org/1999/xlink" x="0px" y="0px"
	 viewBox="0 0 64 64" style="enable-background:new 0 0 64 64;" xml:space="preserve">
<style type="text/css">
	.st0{fill:#52AE32;}
</style>
<path class="st0" d="M32,2C15.4,2,2,15.4,2,32s13.4,30,30,30s30-13.4,30-30C62,15.4,48.6,2,32,2 M41,44.7c-2,1.8-4.9,2.6-8.7,2.6
	c-3.8,0-6.8-0.9-9-2.6C21.1,43,20,40.6,20,37.6h5.8c0.2,1.3,0.6,2.3,1.1,3c1,1.2,2.7,1.8,5.2,1.8c1.5,0,2.6-0.2,3.6-0.5
	c1.7-0.6,2.6-1.7,2.6-3.4c0-1-0.4-1.7-1.3-2.2c-0.8-0.5-2.2-1-4-1.4l-3.1-0.7c-3.1-0.7-5.2-1.4-6.4-2.2c-2-1.3-2.9-3.4-2.9-6.3
	c0-2.6,1-4.8,2.9-6.5c1.9-1.7,4.7-2.6,8.4-2.6c3.1,0,5.7,0.8,7.9,2.4c2.2,1.6,3.3,4,3.4,7.1h-5.8c-0.1-1.7-0.9-3-2.3-3.7
	c-1-0.5-2.2-0.7-3.6-0.7c-1.6,0-2.9,0.3-3.8,0.9s-1.4,1.5-1.4,2.6c0,1,0.5,1.8,1.4,2.3c0.6,0.3,1.9,0.7,3.9,1.2l5.1,1.2
	c2.2,0.5,3.9,1.2,5,2.1c1.7,1.4,2.6,3.3,2.6,5.9C44,40.7,43,42.9,41,44.7"/>
</svg>
